<?xml version="1.0" encoding="UTF-8"?>
<svg id="Layer_2" data-name="Layer 2" xmlns="http://www.w3.org/2000/svg" xmlns:xlink="http://www.w3.org/1999/xlink" viewBox="0 0 244.87 38.14">
  <defs>
    <style>
      .cls-1 {
        fill: #fff;
      }

      .cls-2 {
        fill: #5c7cfa;
      }

      .cls-3 {
        fill: #ff3d00;
      }

      .cls-4 {
        fill: url(#radial-gradient);
      }

      .cls-5 {
        fill: url(#radial-gradient-2);
      }
    </style>
    <radialGradient id="radial-gradient" cx="63.65" cy="-3196.56" fx="63.65" fy="-3196.56" r="22.37" gradientTransform="translate(-113.96 -6356.08) scale(2 -2)" gradientUnits="userSpaceOnUse">
      <stop offset="0" stop-color="#fd5"/>
      <stop offset=".33" stop-color="#ff543f"/>
      <stop offset=".35" stop-color="#fc5245"/>
      <stop offset=".5" stop-color="#e64771"/>
      <stop offset=".64" stop-color="#d53e91"/>
      <stop offset=".76" stop-color="#cc39a4"/>
      <stop offset=".84" stop-color="#c837ab"/>
    </radialGradient>
    <radialGradient id="radial-gradient-2" cx="59.87" cy="-3868.25" fx="59.87" fy="-3868.25" r="14.86" gradientTransform="translate(-113.96 -5154.16) scale(2 -1.33)" gradientUnits="userSpaceOnUse">
      <stop offset="0" stop-color="#4168c9"/>
      <stop offset="1" stop-color="#4168c9" stop-opacity="0"/>
    </radialGradient>
  </defs>
  <g id="design">
    <g>
      <path class="cls-4" d="M27.93,37l-19.93,.02c-4.39,0-7.98-3.58-7.98-7.96L0,9.12C0,4.74,3.58,1.15,7.96,1.14l19.93-.02c4.39,0,7.98,3.58,7.98,7.96l.02,19.93c0,4.39-3.58,7.98-7.96,7.98Z"/>
      <path class="cls-5" d="M27.93,37l-19.93,.02c-4.39,0-7.98-3.58-7.98-7.96L0,9.12C0,4.74,3.58,1.15,7.96,1.14l19.93-.02c4.39,0,7.98,3.58,7.98,7.96l.02,19.93c0,4.39-3.58,7.98-7.96,7.98Z"/>
      <path class="cls-1" d="M17.95,26.05c-3.85,0-6.98-3.13-6.98-6.98s3.13-6.98,6.98-6.98,6.98,3.13,6.98,6.98-3.13,6.98-6.98,6.98Zm0-11.96c-2.75,0-4.98,2.24-4.98,4.98s2.24,4.98,4.98,4.98,4.98-2.24,4.98-4.98-2.24-4.98-4.98-4.98Z"/>
      <circle class="cls-1" cx="25.42" cy="11.6" r="1.49"/>
      <path class="cls-1" d="M23.93,32.03H11.97c-3.85,0-6.98-3.13-6.98-6.98V13.09c0-3.85,3.13-6.98,6.98-6.98h11.96c3.85,0,6.98,3.13,6.98,6.98v11.96c0,3.85-3.13,6.98-6.98,6.98ZM11.97,8.11c-2.75,0-4.98,2.24-4.98,4.98v11.96c0,2.75,2.24,4.98,4.98,4.98h11.96c2.75,0,4.98-2.24,4.98-4.98V13.09c0-2.75-2.24-4.98-4.98-4.98H11.97Z"/>
    </g>
    <g>
      <path class="cls-3" d="M107.59,29.59c-.43,2.23-2.23,3.93-4.46,4.25-3.51,.53-9.35,1.17-15.95,1.17s-12.33-.64-15.95-1.17c-2.23-.32-4.04-2.02-4.46-4.25-.43-2.44-.85-6.06-.85-10.52s.43-8.08,.85-10.52c.43-2.23,2.23-3.93,4.46-4.25,3.51-.53,9.35-1.17,15.95-1.17s12.33,.64,15.95,1.17c2.23,.32,4.04,2.02,4.46,4.25,.43,2.44,.96,6.06,.96,10.52-.11,4.46-.53,8.08-.96,10.52Z"/>
      <path class="cls-1" d="M82.93,26.51V11.63l12.76,7.44-12.76,7.44Z"/>
    </g>
    <g>
      <rect class="cls-1" x="139.34" y="1.89" width="34.36" height="34.36" rx="5.28" ry="5.28"/>
      <path d="M143.81,0C140.3,0,137.45,2.85,137.45,6.36V31.78c0,3.51,2.85,6.36,6.36,6.36h25.43c3.51,0,6.36-2.85,6.36-6.36V6.36C175.59,2.85,172.74,0,169.23,0h-25.43Zm1.89,8.17h7.21l5.12,7.27,6.21-7.27h2.27l-7.46,8.73,9.19,13.06h-7.21l-5.94-8.44-7.21,8.44h-2.27l8.45-9.9-8.38-11.9Zm3.48,1.82l12.81,18.16h2.78l-12.81-18.16h-2.78Z"/>
    </g>
    <g>
      <rect class="cls-1" x="214.49" y=".83" width="26.92" height="37.31"/>
      <path class="cls-2" d="M241.41,0h-31.21c-1.92,0-3.47,1.55-3.47,3.47v31.21c0,1.92,1.55,3.47,3.47,3.47h17.34v-15.6h-5.2v-5.2h5.2v-2.79c0-5.29,2.58-7.61,6.97-7.61,2.1,0,3.22,.16,3.74,.23v4.97h-3c-1.87,0-2.52,.98-2.52,2.98v2.22h5.47l-.74,5.2h-4.73v15.6h8.67c1.92,0,3.47-1.55,3.47-3.47V3.47c0-1.92-1.55-3.47-3.47-3.47Z"/>
    </g>
  </g>
</svg>