<?xml version="1.0" encoding="UTF-8"?>
<svg id="Layer_2" data-name="Layer 2" xmlns="http://www.w3.org/2000/svg" viewBox="0 0 38.14 38.14">
  <defs>
    <style>
      .cls-1 {
        fill: #fff;
      }

      .cls-2 {
        fill: #5c7cfa;
      }
    </style>
  </defs>
  <g id="design">
    <g>
      <rect class="cls-1" x="7.75" y=".83" width="26.92" height="37.31"/>
      <path class="cls-2" d="M34.67,0H3.47C1.55,0,0,1.55,0,3.47v31.21c0,1.92,1.55,3.47,3.47,3.47H20.8v-15.6h-5.2v-5.2h5.2v-2.79c0-5.29,2.58-7.61,6.97-7.61,2.1,0,3.22,.16,3.74,.23v4.97h-3c-1.87,0-2.52,.98-2.52,2.98v2.22h5.47l-.74,5.2h-4.73v15.6h8.67c1.92,0,3.47-1.55,3.47-3.47V3.47c0-1.92-1.55-3.47-3.47-3.47Z"/>
    </g>
  </g>
</svg>