<?xml version="1.0" encoding="UTF-8"?>
<svg id="Layer_2" data-name="Layer 2" xmlns="http://www.w3.org/2000/svg" viewBox="0 0 243.5 32.82">
  <g id="design">
    <g>
      <path d="M1.92,19.54v-6.19C1.92,9,0,7.34,0,3.83,0,1.02,2.17,0,6.26,0s6.19,1.02,6.19,3.83c0,3.51-1.92,5.17-1.92,9.51v6.19c0,.38,0,.77,.06,1.15l1.15-.96c3.45-2.81,2.62-4.28,4.41-6.13,1.72-1.79,4.09-2.11,6.51-2.11,3.06,0,5.87,1.92,3.7,4.15-2.11,2.04-4.21,1.92-6.9,2.87l.7,1.02c2.36,3.58,6.51,3.89,8.56,7.15,1.79,2.87-2.62,6.13-6.7,6.13s-5.55-.77-7.47-3.45c-1.34-1.92-1.4-3.7-2.36-5.87l-.83,.7c.51,1.53,1.08,2.94,1.08,4.85,0,2.81-2.17,3.77-6.19,3.77s-6.26-.96-6.26-3.77c0-3.51,1.92-5.17,1.92-9.51Z"/>
      <path d="M30.39,27.33c-1.09-5.94,10.47-9.77,15.96-7.15-.45-3.13-1.79-5.49-3.89-5.49-2.62,0-2.04,3.32-4.66,4.28-2.17,.7-5.11-.32-5.55-2.36-.89-3.96,6.38-5.11,10.98-5.11,5.24,0,11.88,3.51,11.88,9.13v3.83c0,2.17,2.36,2.3,2.36,4.28,0,2.36-3.19,4.09-5.68,4.09-1.85,0-3.51-.83-4.47-2.3-1.66,1.28-4.02,2.3-7.47,2.3-3.83,0-8.62-.96-9.45-5.49Zm10.28-1.21c.57,2.94,3.58,1.98,5.87-.06v-2.36c-4.28-1.92-6.19,.38-5.87,2.43Z"/>
      <path d="M56.69,14.17c0-1.47,1.21-2.68,2.68-2.68h.89c1.66,0,4.41-5.11,7.66-5.11,1.92,0,3.38,.77,3.38,2.81,0,.89-.26,1.6-.57,2.3h1.92c1.47,0,2.68,1.21,2.68,2.68s-1.21,2.68-2.68,2.68h-3.32v7.6c0,2.17,.57,3.77,4.02,2.11,1.4-.64,4.02,.13,2.49,2.62-1.66,2.87-5.43,3.64-8.11,3.64-3.38,0-7.47-2.04-7.47-6.64v-9.32h-.89c-1.47,0-2.68-1.21-2.68-2.68Z"/>
      <path d="M76.36,14.17c0-1.47,1.21-2.68,2.68-2.68h.89c1.66,0,4.41-5.11,7.66-5.11,1.92,0,3.38,.77,3.38,2.81,0,.89-.26,1.6-.57,2.3h1.92c1.47,0,2.68,1.21,2.68,2.68s-1.21,2.68-2.68,2.68h-3.32v7.6c0,2.17,.57,3.77,4.02,2.11,1.4-.64,4.02,.13,2.49,2.62-1.66,2.87-5.43,3.64-8.11,3.64-3.38,0-7.47-2.04-7.47-6.64v-9.32h-.89c-1.47,0-2.68-1.21-2.68-2.68Z"/>
      <path d="M105.92,22.15c0-5.87,5.68-10.66,12.7-10.66,5.43,0,10.34,2.75,11.88,6.89,1.85,4.79-9.51,6.83-9.9,2.11-.25-3.32-.77-5.81-1.98-5.81-1.15,0-2.17,1.92-2.17,4.34,0,7.09,8.49,9.77,10.34,6.45,.83-1.4,4.47-.77,3.19,1.47-2.04,3.51-6.38,5.87-11.36,5.87-7.02,0-12.7-4.72-12.7-10.66Z"/>
      <path d="M131.77,22.15c0-5.87,5.68-10.66,12.7-10.66s12.7,4.79,12.7,10.66-5.68,10.66-12.7,10.66-12.7-4.72-12.7-10.66Zm10.15,0c0,4.15,1.15,7.47,2.55,7.47s2.62-3.32,2.62-7.47-1.15-7.47-2.62-7.47-2.55,3.38-2.55,7.47Z"/>
      <path d="M158.21,14.17c0-1.47,1.21-2.68,2.68-2.68h.7c1.21-7.6,7.28-11.49,13.73-11.49,4.85,0,10.79,2.49,12,6.19,1.66,4.85-10.02,6.26-10.6,1.47-.38-3.45-1.21-4.41-2.81-4.41-2.23,0-3.38,4.53-3.77,8.24h1.85c1.53,0,2.68,1.21,2.68,2.68s-1.15,2.68-2.68,2.68h-2.04v2.68c0,4.34,1.98,6,1.98,9.51,0,2.81-2.17,3.77-6.26,3.77s-6.19-.96-6.19-3.77c0-3.51,1.92-5.17,1.92-9.51v-2.68h-.51c-1.47,0-2.68-1.21-2.68-2.68Z"/>
      <path d="M175.83,14.17c0-1.47,1.21-2.68,2.68-2.68h.7c1.21-7.6,7.28-11.49,13.73-11.49,4.85,0,10.79,2.49,12,6.19,1.66,4.85-10.02,6.26-10.6,1.47-.38-3.45-1.21-4.41-2.81-4.41-2.23,0-3.38,4.53-3.77,8.24h1.85c1.53,0,2.68,1.21,2.68,2.68s-1.15,2.68-2.68,2.68h-2.04v2.68c0,4.34,1.98,6,1.98,9.51,0,2.81-2.17,3.77-6.26,3.77s-6.19-.96-6.19-3.77c0-3.51,1.92-5.17,1.92-9.51v-2.68h-.51c-1.47,0-2.68-1.21-2.68-2.68Z"/>
      <path d="M193.06,22.15c0-5.87,5.68-10.66,12.7-10.66,6.51,0,11.75,4.15,11.75,7.92,0,4.85-8.17,3.77-9.7,6.96,2.55,.96,5.24,.7,6.13-.89,.83-1.4,4.47-.77,3.19,1.47-2.04,3.51-6.38,5.87-11.36,5.87-7.02,0-12.7-4.72-12.7-10.66Zm9.45-3.13c0,2.55,1.15,4.53,2.75,5.81,.32-3,2.94-6.83,2.94-8.87,0-2.36-5.68-2.17-5.68,3.06Z"/>
      <path d="M219.05,22.15c0-5.87,5.68-10.66,12.7-10.66,6.51,0,11.75,4.15,11.75,7.92,0,4.85-8.17,3.77-9.7,6.96,2.55,.96,5.24,.7,6.13-.89,.83-1.4,4.47-.77,3.19,1.47-2.04,3.51-6.38,5.87-11.36,5.87-7.02,0-12.7-4.72-12.7-10.66Zm9.45-3.13c0,2.55,1.15,4.53,2.75,5.81,.32-3,2.94-6.83,2.94-8.87,0-2.36-5.68-2.17-5.68,3.06Z"/>
    </g>
  </g>
</svg>