<?xml version="1.0" encoding="UTF-8"?>
<svg id="Layer_2" data-name="Layer 2" xmlns="http://www.w3.org/2000/svg" viewBox="0 0 341.75 66.01">
  <defs>
    <style>
      .cls-1 {
        fill: #fff;
      }

      .cls-2 {
        fill: #333;
      }
    </style>
  </defs>
  <g id="design">
    <g>
      <g>
        <path class="cls-1" d="M100.17,40.18v-6.19c0-4.34-1.92-6-1.92-9.51,0-2.81,2.17-3.83,6.26-3.83s6.19,1.02,6.19,3.83c0,3.51-1.92,5.17-1.92,9.51v6.19c0,.38,0,.77,.06,1.15l1.15-.96c3.45-2.81,2.62-4.28,4.41-6.13,1.72-1.79,4.09-2.11,6.51-2.11,3.06,0,5.87,1.92,3.7,4.15-2.11,2.04-4.21,1.92-6.9,2.87l.7,1.02c2.36,3.58,6.51,3.89,8.56,7.15,1.79,2.87-2.62,6.13-6.7,6.13s-5.55-.77-7.47-3.45c-1.34-1.92-1.4-3.7-2.36-5.87l-.83,.7c.51,1.53,1.08,2.94,1.08,4.85,0,2.81-2.17,3.77-6.19,3.77s-6.26-.96-6.26-3.77c0-3.51,1.92-5.17,1.92-9.51Z"/>
        <path class="cls-1" d="M128.64,47.97c-1.09-5.94,10.47-9.77,15.96-7.15-.45-3.13-1.79-5.49-3.89-5.49-2.62,0-2.04,3.32-4.66,4.28-2.17,.7-5.11-.32-5.55-2.36-.89-3.96,6.38-5.11,10.98-5.11,5.24,0,11.88,3.51,11.88,9.13v3.83c0,2.17,2.36,2.3,2.36,4.28,0,2.36-3.19,4.09-5.68,4.09-1.85,0-3.51-.83-4.47-2.3-1.66,1.28-4.02,2.3-7.47,2.3-3.83,0-8.62-.96-9.45-5.49Zm10.28-1.21c.57,2.94,3.58,1.98,5.87-.06v-2.36c-4.28-1.92-6.19,.38-5.87,2.43Z"/>
        <path class="cls-1" d="M154.95,34.82c0-1.47,1.21-2.68,2.68-2.68h.89c1.66,0,4.41-5.11,7.66-5.11,1.92,0,3.38,.77,3.38,2.81,0,.89-.25,1.6-.57,2.3h1.92c1.47,0,2.68,1.21,2.68,2.68s-1.21,2.68-2.68,2.68h-3.32v7.6c0,2.17,.57,3.77,4.02,2.11,1.4-.64,4.02,.13,2.49,2.62-1.66,2.87-5.43,3.64-8.11,3.64-3.38,0-7.47-2.04-7.47-6.64v-9.32h-.89c-1.47,0-2.68-1.21-2.68-2.68Z"/>
        <path class="cls-1" d="M174.61,34.82c0-1.47,1.21-2.68,2.68-2.68h.89c1.66,0,4.41-5.11,7.66-5.11,1.92,0,3.38,.77,3.38,2.81,0,.89-.25,1.6-.57,2.3h1.92c1.47,0,2.68,1.21,2.68,2.68s-1.21,2.68-2.68,2.68h-3.32v7.6c0,2.17,.57,3.77,4.02,2.11,1.4-.64,4.02,.13,2.49,2.62-1.66,2.87-5.43,3.64-8.11,3.64-3.38,0-7.47-2.04-7.47-6.64v-9.32h-.89c-1.47,0-2.68-1.21-2.68-2.68Z"/>
        <path class="cls-1" d="M204.17,42.8c0-5.87,5.68-10.66,12.7-10.66,5.43,0,10.34,2.75,11.88,6.9,1.85,4.79-9.51,6.83-9.9,2.11-.25-3.32-.77-5.81-1.98-5.81-1.15,0-2.17,1.92-2.17,4.34,0,7.09,8.49,9.77,10.34,6.45,.83-1.4,4.47-.77,3.19,1.47-2.04,3.51-6.38,5.87-11.36,5.87-7.02,0-12.7-4.72-12.7-10.66Z"/>
        <path class="cls-1" d="M230.03,42.8c0-5.87,5.68-10.66,12.7-10.66s12.71,4.79,12.71,10.66-5.68,10.66-12.71,10.66-12.7-4.72-12.7-10.66Zm10.15,0c0,4.15,1.15,7.47,2.55,7.47s2.62-3.32,2.62-7.47-1.15-7.47-2.62-7.47-2.55,3.38-2.55,7.47Z"/>
        <path class="cls-1" d="M256.46,34.82c0-1.47,1.21-2.68,2.68-2.68h.7c1.21-7.6,7.28-11.49,13.73-11.49,4.85,0,10.79,2.49,12,6.19,1.66,4.85-10.02,6.26-10.6,1.47-.38-3.45-1.21-4.41-2.81-4.41-2.24,0-3.38,4.53-3.77,8.24h1.85c1.53,0,2.68,1.21,2.68,2.68s-1.15,2.68-2.68,2.68h-2.04v2.68c0,4.34,1.98,6,1.98,9.51,0,2.81-2.17,3.77-6.26,3.77s-6.19-.96-6.19-3.77c0-3.51,1.92-5.17,1.92-9.51v-2.68h-.51c-1.47,0-2.68-1.21-2.68-2.68Z"/>
        <path class="cls-1" d="M274.08,34.82c0-1.47,1.21-2.68,2.68-2.68h.7c1.21-7.6,7.28-11.49,13.73-11.49,4.85,0,10.79,2.49,12,6.19,1.66,4.85-10.02,6.26-10.6,1.47-.38-3.45-1.21-4.41-2.81-4.41-2.24,0-3.38,4.53-3.77,8.24h1.85c1.53,0,2.68,1.21,2.68,2.68s-1.15,2.68-2.68,2.68h-2.04v2.68c0,4.34,1.98,6,1.98,9.51,0,2.81-2.17,3.77-6.26,3.77s-6.19-.96-6.19-3.77c0-3.51,1.92-5.17,1.92-9.51v-2.68h-.51c-1.47,0-2.68-1.21-2.68-2.68Z"/>
        <path class="cls-1" d="M291.32,42.8c0-5.87,5.68-10.66,12.7-10.66,6.51,0,11.75,4.15,11.75,7.92,0,4.85-8.17,3.77-9.7,6.96,2.55,.96,5.24,.7,6.13-.89,.83-1.4,4.47-.77,3.19,1.47-2.04,3.51-6.38,5.87-11.36,5.87-7.02,0-12.7-4.72-12.7-10.66Zm9.45-3.13c0,2.55,1.15,4.53,2.75,5.81,.32-3,2.94-6.83,2.94-8.87,0-2.36-5.68-2.17-5.68,3.06Z"/>
        <path class="cls-1" d="M317.3,42.8c0-5.87,5.68-10.66,12.71-10.66,6.51,0,11.75,4.15,11.75,7.92,0,4.85-8.17,3.77-9.7,6.96,2.55,.96,5.24,.7,6.13-.89,.83-1.4,4.47-.77,3.19,1.47-2.04,3.51-6.38,5.87-11.36,5.87-7.02,0-12.71-4.72-12.71-10.66Zm9.45-3.13c0,2.55,1.15,4.53,2.75,5.81,.32-3,2.94-6.83,2.94-8.87,0-2.36-5.68-2.17-5.68,3.06Z"/>
      </g>
      <g>
        <g>
          <path class="cls-1" d="M31.86,65.56C11.39,65.39,1.41,52.51,.47,25.04c2.48,5.57,14.2,9.22,30.18,9.22s29.15-4.26,30.73-10.44c.06,.13,.12,.28,.17,.42-.04,1.51-.19,2.6-.34,3.76-.1,.75-.21,1.52-.29,2.46l-.02,.26,.26-.02c.24-.02,.48-.02,.72-.02,2.34,0,4.52,.77,6.31,2.23,2.71,2.21,4.06,5.66,3.52,9.01-.98,6.07-10.59,10.4-17.09,11.54l-.1,.02-.05,.09c-4.89,7.89-12.29,11.81-22.61,11.98Zm30.03-29.97c-.47,0-.96,.07-1.44,.2l-.14,.04-.02,.15c-.62,4.21-1.56,8.02-2.79,11.32l-.17,.45,.46-.16c4.18-1.49,8.61-4.18,8.98-6.42,.27-1.64-.41-3.36-1.78-4.47-.62-.51-1.66-1.11-3.09-1.11Z"/>
          <path d="M61.29,24.77c-.05,1.26-.18,2.21-.31,3.21-.1,.75-.21,1.52-.29,2.48l-.04,.52,.52-.04c.24-.02,.47-.02,.7-.02,2.28,0,4.42,.75,6.17,2.18,2.65,2.16,3.97,5.53,3.44,8.8-.96,5.89-10.65,10.26-16.91,11.36l-.2,.03-.11,.17c-4.85,7.82-12.18,11.7-22.41,11.87C11.79,65.17,1.87,52.67,.73,26.03c3.27,5.21,14.46,8.46,29.91,8.46s28.13-3.93,30.64-9.72m-4.34,23.35l.91-.32c4.25-1.51,8.74-4.27,9.12-6.6,.28-1.72-.43-3.52-1.86-4.68-.65-.53-1.74-1.16-3.23-1.16-.49,0-1,.07-1.51,.21l-.28,.08-.04,.29c-.62,4.2-1.56,8-2.78,11.28l-.34,.91m4.34-24.92s-.02,.01-.02,.04c-1,6.69-14.49,10.79-30.62,10.79S1.33,30.27,.27,23.6c0,0,0,0,0,0-.02,0-.03,.89-.04,.89,0,0,0,0,0,0,.8,27.13,10.42,41.14,31.64,41.31,10.57-.18,18.01-4.37,22.8-12.09,6.81-1.19,16.3-5.69,17.28-11.73,.56-3.42-.82-6.96-3.6-9.22-1.85-1.5-4.12-2.28-6.45-2.28-.24,0-.49,0-.74,.03,.2-2.41,.58-3.69,.62-6.32,0,0-.36-.96-.47-.96h0Zm-3.58,24.17c1.25-3.36,2.18-7.16,2.8-11.37,.5-.14,.96-.2,1.38-.2,1.38,0,2.39,.61,2.95,1.06,1.3,1.06,1.95,2.69,1.7,4.26-.33,2.02-4.46,4.69-8.83,6.25h0Z"/>
        </g>
        <path class="cls-2" d="M61.81,24.3c0,.24-.02,.47-.07,.7-1.03,5.72-14.4,10.14-30.67,10.08-16.24-.07-29.7-4.68-30.75-10.39-.02-.1-.03-.21-.04-.31-.02-.14-.02-.28-.02-.42,0-.21,.02-.43,.05-.64,.97-5.74,14.54-10.2,30.86-10.13s29.44,4.64,30.57,10.33c.05,.21,.06,.42,.07,.62,0,.06,0,.12,0,.18Z"/>
        <path class="cls-2" d="M12.87,29.49s0-10.58,.98-15.79c.6-3.18,2.02-6.46,4.08-9,.5-.62,1.91-2.18,2.54-2.17,.55,0,.39,2.99,.41,3.32,.27,3.25,1.37,3.79,4.05,4.19,1.76,.41,3.75,0,5.52-.22,1.35-.17,2.98-1.27,4.01-2.14,2.08-1.76,2.8-3.99,3.11-6.65,.04-.34,.06-.68,.08-1.03,0,.02,.29,.2,.32,.22,.12,.09,.22,.2,.33,.3,1.11,1.02,2.16,2.05,3.12,3.21,3.13,3.78,5.29,8.37,6.39,13.14,.92,3.98,.92,7.99,.79,12.07-6.39,.1-12.78,.19-19.17,.29-5.35,.08-10.7,.16-16.05,.24h-.51Z"/>
        <path class="cls-1" d="M28.51,23.35c-.18,0-.33-.03-.35-.03-.21-.03-.41-.08-.62-.13-.35-.09-.69-.23-.98-.44-.67-.48-.94-1.29-.85-2.12,.1-.94,.7-1.76,1.5-2.27s1.47-.55,2.12-.43c-.7-.94-1.75-1.54-2.92-1.54-2.11,0-3.82,1.93-3.82,4.3,0,1.29,.53,2.6,1.55,3.41s2.44,.98,3.59,.35c.23-.13,.45-.28,.64-.46,.1-.09,.18-.19,.26-.31,.05-.08,.17-.25,.16-.35-.07,0-.17,.01-.28,0Z"/>
        <path class="cls-1" d="M42.49,21.84c-.18,0-.33-.03-.35-.03-.21-.03-.41-.08-.62-.13-.35-.09-.69-.23-.98-.44-.67-.48-.94-1.29-.85-2.12,.1-.94,.7-1.76,1.5-2.27,.76-.5,1.47-.55,2.12-.43-.7-.94-1.75-1.54-2.92-1.54-2.11,0-3.82,1.93-3.82,4.3,0,1.29,.53,2.6,1.55,3.41s2.44,.98,3.59,.35c.23-.13,.45-.28,.64-.46,.1-.09,.18-.19,.26-.31,.05-.08,.17-.25,.16-.35-.07,0-.17,.01-.28,0Z"/>
        <g>
          <path class="cls-2" d="M17.87,52.9v-1.77c0-1.24-.55-1.71-.55-2.72,0-.8,.62-1.09,1.79-1.09s1.77,.29,1.77,1.09c0,1-.55,1.48-.55,2.72v1.77c0,.11,0,.22,.02,.33l.33-.27c.98-.8,.75-1.22,1.26-1.75,.49-.51,1.17-.6,1.86-.6,.88,0,1.68,.55,1.06,1.19-.6,.58-1.2,.55-1.97,.82l.2,.29c.67,1.02,1.86,1.11,2.44,2.04,.51,.82-.75,1.75-1.91,1.75s-1.59-.22-2.13-.98c-.38-.55-.4-1.06-.67-1.68l-.24,.2c.15,.44,.31,.84,.31,1.39,0,.8-.62,1.08-1.77,1.08s-1.79-.27-1.79-1.08c0-1,.55-1.48,.55-2.72Z"/>
          <path class="cls-2" d="M26.01,55.13c-.31-1.7,2.99-2.79,4.56-2.04-.13-.89-.51-1.57-1.11-1.57-.75,0-.58,.95-1.33,1.22-.62,.2-1.46-.09-1.59-.67-.26-1.13,1.82-1.46,3.14-1.46,1.5,0,3.39,1,3.39,2.61v1.09c0,.62,.67,.66,.67,1.22,0,.67-.91,1.17-1.62,1.17-.53,0-1-.24-1.28-.66-.47,.36-1.15,.66-2.13,.66-1.09,0-2.46-.27-2.7-1.57Zm2.94-.35c.16,.84,1.02,.57,1.68-.02v-.67c-1.22-.55-1.77,.11-1.68,.69Z"/>
          <path class="cls-2" d="M33.52,51.37c0-.42,.35-.77,.77-.77h.26c.47,0,1.26-1.46,2.19-1.46,.55,0,.97,.22,.97,.8,0,.26-.07,.46-.16,.66h.55c.42,0,.77,.35,.77,.77s-.35,.77-.77,.77h-.95v2.17c0,.62,.16,1.08,1.15,.6,.4-.18,1.15,.04,.71,.75-.47,.82-1.55,1.04-2.32,1.04-.97,0-2.13-.58-2.13-1.9v-2.66h-.26c-.42,0-.77-.35-.77-.77Z"/>
          <path class="cls-2" d="M39.14,51.37c0-.42,.35-.77,.77-.77h.26c.47,0,1.26-1.46,2.19-1.46,.55,0,.97,.22,.97,.8,0,.26-.07,.46-.16,.66h.55c.42,0,.77,.35,.77,.77s-.35,.77-.77,.77h-.95v2.17c0,.62,.16,1.08,1.15,.6,.4-.18,1.15,.04,.71,.75-.47,.82-1.55,1.04-2.32,1.04-.97,0-2.13-.58-2.13-1.9v-2.66h-.26c-.42,0-.77-.35-.77-.77Z"/>
        </g>
      </g>
    </g>
  </g>
</svg>