<?xml version="1.0" encoding="UTF-8"?>
<svg id="Layer_2" data-name="Layer 2" xmlns="http://www.w3.org/2000/svg" viewBox="0 0 93.65 85.58">
  <defs>
    <style>
      .cls-1 {
        fill: #fff;
      }

      .cls-2 {
        fill: #333;
      }
    </style>
  </defs>
  <g id="design">
    <g>
      <g>
        <path class="cls-1" d="M41.27,85.13C14.58,84.91,1.61,68.07,.46,32.13c2.88,7.4,18.2,12.26,39.24,12.26s38.03-5.6,39.86-13.68c.1,.22,.21,.48,.3,.73-.04,1.99-.24,3.41-.44,4.91-.13,.97-.27,1.97-.37,3.19l-.02,.26,.26-.02c.31-.02,.63-.03,.94-.03,3.05,0,5.89,1.01,8.23,2.91,3.54,2.88,5.3,7.39,4.59,11.75-1.28,7.91-13.77,13.55-22.23,15.03l-.1,.02-.05,.09c-6.36,10.26-15.97,15.35-29.39,15.57Zm38.97-38.89c-.61,0-1.23,.09-1.86,.26l-.14,.04-.02,.14c-.81,5.47-2.03,10.42-3.62,14.71l-.17,.45,.46-.16c5.41-1.93,11.13-5.39,11.6-8.28,.34-2.11-.53-4.31-2.28-5.73-.8-.65-2.14-1.43-3.97-1.43Z"/>
        <path d="M79.87,30.23h0m-.27,1.17s0,.02,.01,.04c-.03,2.01-.22,3.41-.42,4.88-.13,.97-.27,1.97-.37,3.21l-.04,.52,.52-.04c.31-.02,.62-.03,.92-.03,3,0,5.79,.99,8.09,2.86,3.48,2.83,5.21,7.26,4.51,11.54-1.26,7.8-13.65,13.37-22.05,14.84l-.2,.03-.11,.17c-6.32,10.19-15.87,15.25-29.19,15.47-13.56-.11-23.4-4.53-30.1-13.51C4.82,62.88,1.4,50.39,.73,33.25c3.82,6.99,18.51,11.37,38.97,11.37s37.36-5.38,39.9-13.22m-5.54,30.82l.91-.32c5.47-1.95,11.27-5.48,11.75-8.46,.36-2.19-.55-4.47-2.36-5.94-.83-.67-2.21-1.48-4.11-1.48-.63,0-1.27,.09-1.92,.27l-.28,.08-.04,.29c-.81,5.46-2.02,10.39-3.61,14.66l-.34,.91m5.41-32.11s-.03,.02-.03,.05c-1.29,8.68-18.81,14-39.73,14S1.66,39.28,.28,30.62c0,0,0-.01,0-.01-.02,0-.04,1.16-.05,1.16,0,0,0,0,0-.01,1.03,35.2,13.53,53.38,41.05,53.6,13.72-.23,23.37-5.67,29.58-15.68,8.84-1.55,21.15-7.38,22.42-15.22,.72-4.44-1.07-9.03-4.67-11.96-2.4-1.95-5.34-2.96-8.38-2.96-.32,0-.64,.01-.95,.03,.26-3.13,.75-4.78,.8-8.21,0,0-.47-1.25-.6-1.25h0Zm-4.65,31.36c1.62-4.36,2.83-9.29,3.63-14.75,.64-.18,1.24-.25,1.8-.25,1.8,0,3.1,.79,3.82,1.38,1.69,1.37,2.53,3.49,2.2,5.52-.42,2.62-5.78,6.09-11.46,8.11h0Z"/>
      </g>
      <path class="cls-2" d="M80.14,31.53c0,.31-.03,.61-.09,.9-1.34,7.42-18.69,13.16-39.8,13.07-21.07-.09-38.54-6.08-39.9-13.49-.03-.14-.04-.27-.05-.4-.02-.18-.03-.36-.03-.55,0-.28,.02-.55,.07-.82,1.26-7.45,18.86-13.24,40.04-13.15,20.98,.09,38.2,6.03,39.66,13.4,.06,.27,.08,.54,.09,.81,0,.08,.01,.16,.01,.23Z"/>
      <path class="cls-2" d="M16.63,38.26s0-13.73,1.27-20.49c.77-4.13,2.62-8.39,5.3-11.68,.65-.8,2.48-2.83,3.3-2.82,.71,0,.5,3.87,.54,4.31,.35,4.22,1.78,4.92,5.26,5.43,2.28,.53,4.87,0,7.16-.28,1.75-.22,3.86-1.64,5.2-2.78,2.7-2.29,3.64-5.18,4.03-8.63,.05-.44,.08-.89,.1-1.33,0,.03,.38,.25,.42,.29,.15,.12,.29,.26,.43,.39,1.43,1.32,2.8,2.66,4.05,4.17,4.06,4.91,6.86,10.86,8.29,17.05,1.2,5.16,1.2,10.37,1.02,15.67-8.29,.13-16.58,.25-24.88,.38-6.94,.1-13.89,.21-20.83,.31h-.67Z"/>
      <path class="cls-1" d="M36.93,30.3c-.23-.01-.43-.04-.45-.04-.27-.03-.54-.1-.8-.16-.45-.11-.89-.29-1.27-.57-.87-.63-1.22-1.67-1.1-2.74,.13-1.23,.91-2.28,1.94-2.95,.99-.65,1.91-.72,2.75-.56-.91-1.22-2.27-2-3.8-2-2.74,0-4.96,2.5-4.96,5.58,0,1.67,.69,3.37,2.01,4.42s3.16,1.27,4.65,.46c.3-.16,.59-.36,.84-.6,.12-.12,.24-.25,.33-.4,.07-.11,.22-.32,.21-.45-.09,.01-.22,.01-.36,0Z"/>
      <path class="cls-1" d="M55.07,28.34c-.23-.01-.43-.04-.45-.04-.27-.03-.54-.1-.8-.16-.45-.11-.89-.29-1.27-.57-.87-.63-1.22-1.67-1.1-2.74,.13-1.23,.91-2.28,1.94-2.95,.99-.65,1.91-.72,2.75-.56-.91-1.22-2.27-2-3.8-2-2.74,0-4.96,2.5-4.96,5.58,0,1.67,.69,3.37,2.01,4.42,1.32,1.05,3.16,1.27,4.65,.46,.3-.16,.59-.36,.84-.6,.12-.12,.24-.25,.33-.4,.07-.11,.22-.32,.21-.45-.09,.01-.22,.01-.36,0Z"/>
      <g>
        <path class="cls-2" d="M23.13,68.64v-2.3c0-1.61-.71-2.22-.71-3.53,0-1.04,.8-1.42,2.32-1.42s2.3,.38,2.3,1.42c0,1.3-.71,1.92-.71,3.53v2.3c0,.14,0,.28,.02,.43l.43-.36c1.28-1.04,.97-1.59,1.63-2.27,.64-.66,1.51-.78,2.41-.78,1.14,0,2.18,.71,1.37,1.54-.78,.76-1.56,.71-2.56,1.07l.26,.38c.88,1.33,2.41,1.44,3.17,2.65,.66,1.06-.97,2.27-2.48,2.27s-2.06-.28-2.77-1.28c-.5-.71-.52-1.37-.88-2.18l-.31,.26c.19,.57,.4,1.09,.4,1.8,0,1.04-.8,1.4-2.3,1.4s-2.32-.36-2.32-1.4c0-1.3,.71-1.92,.71-3.53Z"/>
        <path class="cls-2" d="M33.68,71.53c-.4-2.2,3.88-3.62,5.92-2.65-.17-1.16-.66-2.03-1.44-2.03-.97,0-.76,1.23-1.73,1.59-.8,.26-1.89-.12-2.06-.88-.33-1.47,2.37-1.89,4.07-1.89,1.94,0,4.4,1.3,4.4,3.38v1.42c0,.81,.88,.85,.88,1.59,0,.88-1.18,1.51-2.11,1.51-.69,0-1.3-.31-1.66-.85-.62,.47-1.49,.85-2.77,.85-1.42,0-3.19-.36-3.5-2.04Zm3.81-.45c.21,1.09,1.33,.73,2.18-.02v-.88c-1.59-.71-2.3,.14-2.18,.9Z"/>
        <path class="cls-2" d="M43.43,66.65c0-.54,.45-.99,.99-.99h.33c.62,0,1.63-1.89,2.84-1.89,.71,0,1.25,.28,1.25,1.04,0,.33-.09,.59-.21,.85h.71c.54,0,.99,.45,.99,.99s-.45,.99-.99,.99h-1.23v2.82c0,.81,.21,1.4,1.49,.78,.52-.24,1.49,.05,.92,.97-.61,1.06-2.01,1.35-3.01,1.35-1.25,0-2.77-.76-2.77-2.46v-3.45h-.33c-.54,0-.99-.45-.99-.99Z"/>
        <path class="cls-2" d="M50.72,66.65c0-.54,.45-.99,.99-.99h.33c.62,0,1.63-1.89,2.84-1.89,.71,0,1.25,.28,1.25,1.04,0,.33-.09,.59-.21,.85h.71c.54,0,.99,.45,.99,.99s-.45,.99-.99,.99h-1.23v2.82c0,.81,.21,1.4,1.49,.78,.52-.24,1.49,.05,.92,.97-.61,1.06-2.01,1.35-3.01,1.35-1.25,0-2.77-.76-2.77-2.46v-3.45h-.33c-.54,0-.99-.45-.99-.99Z"/>
      </g>
    </g>
  </g>
</svg>