<?xml version="1.0" encoding="UTF-8"?>
<svg id="Layer_2" data-name="Layer 2" xmlns="http://www.w3.org/2000/svg" viewBox="0 0 38.14 38.14">
  <defs>
    <style>
      .cls-1 {
        fill: #fff;
      }
    </style>
  </defs>
  <g id="design">
    <g>
      <rect class="cls-1" x="1.89" y="1.89" width="34.36" height="34.36" rx="5.28" ry="5.28"/>
      <path d="M6.36,0C2.85,0,0,2.85,0,6.36V31.78c0,3.51,2.85,6.36,6.36,6.36H31.78c3.51,0,6.36-2.85,6.36-6.36V6.36c0-3.51-2.85-6.36-6.36-6.36H6.36Zm1.89,8.17h7.21l5.12,7.27,6.21-7.27h2.27l-7.46,8.73,9.19,13.06h-7.21l-5.94-8.44-7.21,8.44h-2.27l8.45-9.9L8.25,8.17Zm3.48,1.82l12.81,18.16h2.78L14.51,9.99h-2.78Z"/>
    </g>
  </g>
</svg>