<?xml version="1.0" encoding="UTF-8"?>
<svg id="Layer_2" data-name="Layer 2" xmlns="http://www.w3.org/2000/svg" viewBox="0 0 42.63 31.89">
  <defs>
    <style>
      .cls-1 {
        fill: #fff;
      }

      .cls-2 {
        fill: #ff3d00;
      }
    </style>
  </defs>
  <g id="design">
    <g>
      <path class="cls-2" d="M41.67,26.47c-.43,2.23-2.23,3.93-4.46,4.25-3.51,.53-9.35,1.17-15.95,1.17s-12.33-.64-15.95-1.17c-2.23-.32-4.04-2.02-4.46-4.25-.43-2.44-.85-6.06-.85-10.52S.43,7.87,.85,5.42C1.28,3.19,3.08,1.49,5.32,1.17c3.51-.53,9.35-1.17,15.95-1.17s12.33,.64,15.95,1.17c2.23,.32,4.04,2.02,4.46,4.25,.43,2.44,.96,6.06,.96,10.52-.11,4.46-.53,8.08-.96,10.52Z"/>
      <path class="cls-1" d="M17.01,23.39V8.5l12.76,7.44-12.76,7.44Z"/>
    </g>
  </g>
</svg>