<?xml version="1.0" encoding="UTF-8"?>
<svg id="Layer_2" data-name="Layer 2" xmlns="http://www.w3.org/2000/svg" viewBox="0 0 193.34 102.5">
  <defs>
    <style>
      .cls-1 {
        fill: #fff;
      }

      .cls-2 {
        fill: #333;
      }
    </style>
  </defs>
  <g id="design">
    <g>
      <g>
        <g>
          <path class="cls-1" d="M92.27,67.45c-21.07-.17-31.34-13.43-32.3-41.72,2.52,5.75,14.59,9.52,31.05,9.52s30.01-4.39,31.61-10.75c.06,.14,.12,.3,.18,.45-.04,1.56-.19,2.68-.35,3.87-.1,.77-.21,1.56-.29,2.53l-.02,.26,.26-.02c.25-.02,.5-.03,.74-.03,2.41,0,4.65,.79,6.5,2.3,2.79,2.28,4.18,5.83,3.62,9.27-1.01,6.25-10.9,10.71-17.59,11.88l-.1,.02-.05,.09c-5.03,8.12-12.64,12.15-23.26,12.33Zm30.9-30.83c-.49,0-.98,.07-1.48,.21l-.14,.04-.02,.15c-.64,4.34-1.61,8.26-2.87,11.65l-.17,.45,.46-.16c4.3-1.53,8.86-4.29,9.23-6.6,.27-1.69-.42-3.45-1.83-4.59-.64-.52-1.71-1.14-3.17-1.14Z"/>
          <path d="M122.56,25.42c-.05,1.33-.18,2.33-.32,3.37-.11,.77-.21,1.57-.29,2.55l-.04,.52,.52-.04c.24-.02,.48-.03,.73-.03,2.35,0,4.55,.78,6.36,2.25,2.73,2.23,4.09,5.7,3.55,9.06-.98,6.07-10.97,10.57-17.41,11.69l-.2,.03-.11,.17c-4.99,8.05-12.54,12.04-23.07,12.22-20.67-.17-30.88-13.05-32.04-40.49,3.32,5.38,14.85,8.74,30.79,8.74s29.02-4.07,31.54-10.05m-4.46,24.07l.91-.32c4.37-1.56,8.99-4.38,9.38-6.78,.29-1.77-.44-3.61-1.91-4.8-.67-.54-1.78-1.19-3.32-1.19-.51,0-1.03,.07-1.55,.22l-.28,.08-.04,.29c-.64,4.32-1.6,8.23-2.86,11.61l-.34,.91m4.44-25.61s-.02,.01-.03,.04c-1.02,6.88-14.91,11.1-31.5,11.1s-30.16-3.88-31.25-10.74c0,0,0,0,0,0-.02,0-.03,.92-.04,.92,0,0,0,0,0,0,.82,27.91,10.72,42.33,32.55,42.5,10.87-.18,18.53-4.49,23.45-12.43,7.01-1.23,16.77-5.85,17.77-12.06,.57-3.52-.85-7.16-3.71-9.49-1.9-1.55-4.24-2.35-6.64-2.35-.25,0-.5,0-.76,.03,.2-2.48,.6-3.79,.63-6.51,0,0-.37-.99-.48-.99h0Zm-3.68,24.86c1.29-3.46,2.24-7.36,2.88-11.7,.51-.14,.99-.2,1.42-.2,1.42,0,2.46,.63,3.03,1.09,1.34,1.09,2.01,2.77,1.75,4.38-.34,2.08-4.59,4.83-9.08,6.43h0Z"/>
        </g>
        <path class="cls-2" d="M123.08,25c0,.24-.02,.48-.07,.72-1.06,5.88-14.82,10.44-31.56,10.37-16.7-.07-30.56-4.82-31.64-10.69-.02-.11-.03-.22-.04-.32-.02-.15-.03-.29-.02-.43,0-.22,.02-.44,.06-.65,1-5.91,14.95-10.5,31.75-10.43,16.63,.07,30.29,4.78,31.45,10.62,.05,.21,.06,.43,.07,.64,0,.06,0,.12,0,.18Z"/>
        <path class="cls-2" d="M72.73,30.34s0-10.88,1-16.24c.61-3.28,2.08-6.65,4.2-9.26,.52-.63,1.96-2.24,2.62-2.23,.57,0,.4,3.07,.43,3.42,.27,3.34,1.41,3.9,4.17,4.31,1.81,.42,3.86,0,5.68-.22,1.39-.17,3.06-1.3,4.13-2.21,2.14-1.81,2.88-4.11,3.2-6.84,.04-.35,.07-.7,.08-1.06,0,.02,.3,.2,.33,.23,.12,.1,.23,.2,.34,.31,1.14,1.05,2.22,2.11,3.21,3.31,3.22,3.89,5.44,8.61,6.58,13.52,.95,4.09,.95,8.22,.81,12.42-6.57,.1-13.15,.2-19.72,.3-5.5,.08-11.01,.17-16.51,.25h-.53Z"/>
        <path class="cls-1" d="M88.82,24.02c-.18,0-.34-.03-.36-.03-.21-.03-.42-.08-.63-.13-.36-.09-.71-.23-1.01-.45-.69-.5-.96-1.33-.87-2.18,.1-.97,.72-1.81,1.54-2.34,.79-.51,1.51-.57,2.18-.44-.72-.97-1.8-1.58-3.01-1.58-2.17,0-3.93,1.98-3.93,4.43,0,1.33,.54,2.67,1.6,3.51s2.51,1.01,3.69,.36c.24-.13,.47-.28,.66-.47,.1-.1,.19-.2,.26-.31,.06-.08,.17-.26,.17-.36-.07,0-.17,.01-.29,0Z"/>
        <path class="cls-1" d="M103.2,22.47c-.18,0-.34-.03-.36-.03-.21-.03-.42-.08-.63-.13-.36-.09-.71-.23-1.01-.45-.69-.5-.96-1.33-.87-2.18,.1-.97,.72-1.81,1.54-2.34,.79-.51,1.51-.57,2.18-.44-.72-.97-1.8-1.58-3.01-1.58-2.17,0-3.93,1.98-3.93,4.43,0,1.33,.54,2.67,1.6,3.51s2.51,1.01,3.69,.36c.24-.13,.47-.28,.66-.47,.1-.1,.19-.2,.26-.31,.06-.08,.17-.26,.17-.36-.07,0-.17,.01-.29,0Z"/>
        <g>
          <path class="cls-2" d="M77.88,54.42v-1.82c0-1.28-.56-1.76-.56-2.8,0-.83,.64-1.13,1.84-1.13s1.82,.3,1.82,1.13c0,1.03-.56,1.52-.56,2.8v1.82c0,.11,0,.22,.02,.34l.34-.28c1.01-.83,.77-1.26,1.29-1.8,.51-.53,1.2-.62,1.91-.62,.9,0,1.73,.56,1.09,1.22-.62,.6-1.24,.56-2.03,.84l.21,.3c.69,1.05,1.91,1.14,2.51,2.1,.53,.84-.77,1.8-1.97,1.8s-1.63-.23-2.2-1.01c-.39-.56-.41-1.09-.69-1.73l-.24,.21c.15,.45,.32,.86,.32,1.43,0,.83-.64,1.11-1.82,1.11s-1.84-.28-1.84-1.11c0-1.03,.56-1.52,.56-2.8Z"/>
          <path class="cls-2" d="M86.25,56.71c-.32-1.74,3.08-2.87,4.69-2.1-.13-.92-.53-1.61-1.14-1.61-.77,0-.6,.98-1.37,1.26-.64,.21-1.5-.09-1.63-.69-.26-1.16,1.88-1.5,3.23-1.5,1.54,0,3.49,1.03,3.49,2.68v1.13c0,.64,.69,.68,.69,1.26,0,.69-.94,1.2-1.67,1.2-.54,0-1.03-.24-1.31-.68-.49,.38-1.18,.68-2.19,.68-1.13,0-2.53-.28-2.78-1.61Zm3.02-.36c.17,.86,1.05,.58,1.73-.02v-.69c-1.26-.56-1.82,.11-1.73,.71Z"/>
          <path class="cls-2" d="M93.98,52.85c0-.43,.36-.79,.79-.79h.26c.49,0,1.29-1.5,2.25-1.5,.56,0,.99,.22,.99,.83,0,.26-.07,.47-.17,.68h.56c.43,0,.79,.36,.79,.79s-.36,.79-.79,.79h-.98v2.23c0,.64,.17,1.11,1.18,.62,.41-.19,1.18,.04,.73,.77-.49,.84-1.59,1.07-2.38,1.07-.99,0-2.19-.6-2.19-1.95v-2.74h-.26c-.43,0-.79-.36-.79-.79Z"/>
          <path class="cls-2" d="M99.76,52.85c0-.43,.36-.79,.79-.79h.26c.49,0,1.29-1.5,2.25-1.5,.56,0,.99,.22,.99,.83,0,.26-.07,.47-.17,.68h.56c.43,0,.79,.36,.79,.79s-.36,.79-.79,.79h-.98v2.23c0,.64,.17,1.11,1.18,.62,.41-.19,1.18,.04,.73,.77-.49,.84-1.59,1.07-2.38,1.07-.99,0-2.19-.6-2.19-1.95v-2.74h-.26c-.43,0-.79-.36-.79-.79Z"/>
        </g>
      </g>
      <g>
        <path class="cls-1" d="M1.52,91.96v-4.92c0-3.45-1.52-4.76-1.52-7.55,0-2.23,1.72-3.04,4.97-3.04s4.92,.81,4.92,3.04c0,2.79-1.52,4.11-1.52,7.55v4.92c0,.3,0,.61,.05,.91l.91-.76c2.74-2.23,2.08-3.4,3.5-4.87,1.37-1.42,3.24-1.67,5.17-1.67,2.43,0,4.66,1.52,2.94,3.29-1.67,1.62-3.35,1.52-5.47,2.28l.56,.81c1.88,2.84,5.17,3.09,6.79,5.68,1.42,2.28-2.08,4.87-5.32,4.87s-4.41-.61-5.93-2.74c-1.06-1.52-1.11-2.94-1.88-4.66l-.66,.56c.41,1.22,.86,2.33,.86,3.85,0,2.23-1.72,2.99-4.92,2.99s-4.97-.76-4.97-2.99c0-2.79,1.52-4.11,1.52-7.55Z"/>
        <path class="cls-1" d="M24.13,98.14c-.86-4.71,8.31-7.76,12.67-5.68-.36-2.48-1.42-4.36-3.09-4.36-2.08,0-1.62,2.64-3.7,3.4-1.72,.56-4.06-.25-4.41-1.88-.71-3.14,5.07-4.05,8.72-4.05,4.16,0,9.43,2.79,9.43,7.25v3.04c0,1.72,1.88,1.82,1.88,3.4,0,1.88-2.53,3.24-4.51,3.24-1.47,0-2.79-.66-3.55-1.82-1.32,1.01-3.19,1.82-5.93,1.82-3.04,0-6.84-.76-7.5-4.36Zm8.16-.96c.46,2.33,2.84,1.57,4.66-.05v-1.88c-3.4-1.52-4.92,.3-4.66,1.93Z"/>
        <path class="cls-1" d="M45.02,87.7c0-1.17,.96-2.13,2.13-2.13h.71c1.32,0,3.5-4.06,6.08-4.06,1.52,0,2.69,.61,2.69,2.23,0,.71-.2,1.27-.46,1.82h1.52c1.17,0,2.13,.96,2.13,2.13s-.96,2.13-2.13,2.13h-2.64v6.03c0,1.72,.46,2.99,3.19,1.67,1.12-.51,3.19,.1,1.98,2.08-1.32,2.28-4.31,2.89-6.44,2.89-2.69,0-5.93-1.62-5.93-5.27v-7.4h-.71c-1.17,0-2.13-.96-2.13-2.13Z"/>
        <path class="cls-1" d="M60.63,87.7c0-1.17,.96-2.13,2.13-2.13h.71c1.32,0,3.5-4.06,6.08-4.06,1.52,0,2.69,.61,2.69,2.23,0,.71-.2,1.27-.46,1.82h1.52c1.17,0,2.13,.96,2.13,2.13s-.96,2.13-2.13,2.13h-2.64v6.03c0,1.72,.46,2.99,3.19,1.67,1.12-.51,3.19,.1,1.98,2.08-1.32,2.28-4.31,2.89-6.44,2.89-2.69,0-5.93-1.62-5.93-5.27v-7.4h-.71c-1.17,0-2.13-.96-2.13-2.13Z"/>
        <path class="cls-1" d="M84.1,94.03c0-4.66,4.51-8.47,10.09-8.47,4.31,0,8.21,2.18,9.43,5.47,1.47,3.8-7.55,5.42-7.86,1.67-.2-2.64-.61-4.61-1.57-4.61-.91,0-1.72,1.52-1.72,3.45,0,5.63,6.74,7.76,8.21,5.12,.66-1.12,3.55-.61,2.54,1.17-1.62,2.79-5.07,4.66-9.02,4.66-5.58,0-10.09-3.75-10.09-8.47Z"/>
        <path class="cls-1" d="M104.63,94.03c0-4.66,4.51-8.47,10.09-8.47s10.09,3.8,10.09,8.47-4.51,8.47-10.09,8.47-10.09-3.75-10.09-8.47Zm8.06,0c0,3.3,.91,5.93,2.03,5.93s2.08-2.64,2.08-5.93-.91-5.93-2.08-5.93-2.03,2.69-2.03,5.93Z"/>
        <path class="cls-1" d="M125.62,87.7c0-1.17,.96-2.13,2.13-2.13h.56c.96-6.03,5.78-9.12,10.9-9.12,3.85,0,8.57,1.98,9.53,4.92,1.32,3.85-7.96,4.97-8.41,1.17-.3-2.74-.96-3.5-2.23-3.5-1.77,0-2.69,3.6-2.99,6.54h1.47c1.22,0,2.13,.96,2.13,2.13s-.91,2.13-2.13,2.13h-1.62v2.13c0,3.45,1.57,4.76,1.57,7.55,0,2.23-1.72,2.99-4.97,2.99s-4.92-.76-4.92-2.99c0-2.79,1.52-4.11,1.52-7.55v-2.13h-.4c-1.17,0-2.13-.96-2.13-2.13Z"/>
        <path class="cls-1" d="M139.61,87.7c0-1.17,.96-2.13,2.13-2.13h.56c.96-6.03,5.78-9.12,10.9-9.12,3.85,0,8.57,1.98,9.53,4.92,1.32,3.85-7.96,4.97-8.41,1.17-.3-2.74-.96-3.5-2.23-3.5-1.77,0-2.69,3.6-2.99,6.54h1.47c1.22,0,2.13,.96,2.13,2.13s-.91,2.13-2.13,2.13h-1.62v2.13c0,3.45,1.57,4.76,1.57,7.55,0,2.23-1.72,2.99-4.97,2.99s-4.92-.76-4.92-2.99c0-2.79,1.52-4.11,1.52-7.55v-2.13h-.4c-1.17,0-2.13-.96-2.13-2.13Z"/>
        <path class="cls-1" d="M153.29,94.03c0-4.66,4.51-8.47,10.09-8.47,5.17,0,9.33,3.29,9.33,6.29,0,3.85-6.49,2.99-7.71,5.53,2.03,.76,4.16,.56,4.87-.71,.66-1.12,3.55-.61,2.54,1.17-1.62,2.79-5.07,4.66-9.02,4.66-5.58,0-10.09-3.75-10.09-8.47Zm7.5-2.48c0,2.03,.91,3.6,2.18,4.61,.25-2.38,2.33-5.42,2.33-7.05,0-1.88-4.51-1.72-4.51,2.43Z"/>
        <path class="cls-1" d="M173.93,94.03c0-4.66,4.51-8.47,10.09-8.47,5.17,0,9.33,3.29,9.33,6.29,0,3.85-6.49,2.99-7.71,5.53,2.03,.76,4.16,.56,4.87-.71,.66-1.12,3.55-.61,2.54,1.17-1.62,2.79-5.07,4.66-9.02,4.66-5.58,0-10.09-3.75-10.09-8.47Zm7.5-2.48c0,2.03,.91,3.6,2.18,4.61,.25-2.38,2.33-5.42,2.33-7.05,0-1.88-4.51-1.72-4.51,2.43Z"/>
      </g>
    </g>
  </g>
</svg>