<svg width="22" height="26" viewBox="0 0 22 26" fill="none" xmlns="http://www.w3.org/2000/svg">
<path d="M1.6875 23.1563C1.6875 23.7779 1.93443 24.374 2.37397 24.8135C2.81351 25.2531 3.40965 25.5 4.03125 25.5H18.0938C18.7154 25.5 19.3115 25.2531 19.751 24.8135C20.1906 24.374 20.4375 23.7779 20.4375 23.1563V6.75001H1.6875V23.1563ZM14.9688 10.6563C14.9688 10.4491 15.0511 10.2503 15.1976 10.1038C15.3441 9.95732 15.5428 9.87501 15.75 9.87501C15.9572 9.87501 16.1559 9.95732 16.3024 10.1038C16.4489 10.2503 16.5312 10.4491 16.5312 10.6563V21.5938C16.5312 21.801 16.4489 21.9997 16.3024 22.1462C16.1559 22.2927 15.9572 22.375 15.75 22.375C15.5428 22.375 15.3441 22.2927 15.1976 22.1462C15.0511 21.9997 14.9688 21.801 14.9688 21.5938V10.6563ZM10.2812 10.6563C10.2812 10.4491 10.3636 10.2503 10.5101 10.1038C10.6566 9.95732 10.8553 9.87501 11.0625 9.87501C11.2697 9.87501 11.4684 9.95732 11.6149 10.1038C11.7614 10.2503 11.8438 10.4491 11.8438 10.6563V21.5938C11.8438 21.801 11.7614 21.9997 11.6149 22.1462C11.4684 22.2927 11.2697 22.375 11.0625 22.375C10.8553 22.375 10.6566 22.2927 10.5101 22.1462C10.3636 21.9997 10.2812 21.801 10.2812 21.5938V10.6563ZM5.59375 10.6563C5.59375 10.4491 5.67606 10.2503 5.82257 10.1038C5.96909 9.95732 6.1678 9.87501 6.375 9.87501C6.5822 9.87501 6.78091 9.95732 6.92743 10.1038C7.07394 10.2503 7.15625 10.4491 7.15625 10.6563V21.5938C7.15625 21.801 7.07394 21.9997 6.92743 22.1462C6.78091 22.2927 6.5822 22.375 6.375 22.375C6.1678 22.375 5.96909 22.2927 5.82257 22.1462C5.67606 21.9997 5.59375 21.801 5.59375 21.5938V10.6563ZM21.2188 2.06251H15.3594L14.9004 1.14942C14.8032 0.954215 14.6534 0.79001 14.4679 0.675281C14.2825 0.560553 14.0687 0.499852 13.8506 0.500009H8.26953C8.05194 0.499172 7.83852 0.559646 7.65371 0.674503C7.46891 0.789359 7.32019 0.953951 7.22461 1.14942L6.76562 2.06251H0.90625C0.69905 2.06251 0.500336 2.14482 0.353823 2.29133C0.20731 2.43784 0.125 2.63656 0.125 2.84376L0.125 4.40626C0.125 4.61346 0.20731 4.81217 0.353823 4.95869C0.500336 5.1052 0.69905 5.18751 0.90625 5.18751H21.2188C21.426 5.18751 21.6247 5.1052 21.7712 4.95869C21.9177 4.81217 22 4.61346 22 4.40626V2.84376C22 2.63656 21.9177 2.43784 21.7712 2.29133C21.6247 2.14482 21.426 2.06251 21.2188 2.06251Z" fill="black"/>
</svg>
