<svg width="26" height="26" viewBox="0 0 26 26" fill="none" xmlns="http://www.w3.org/2000/svg">
<path d="M24.4366 7.43532L22.1856 9.68629C21.9561 9.91578 21.585 9.91578 21.3555 9.68629L15.9356 4.26637C15.7061 4.03688 15.7061 3.66578 15.9356 3.43629L18.1866 1.18532C19.0997 0.272233 20.584 0.272233 21.502 1.18532L24.4366 4.11989C25.3546 5.03297 25.3546 6.51735 24.4366 7.43532ZM14.002 5.36989L1.17975 18.1922L0.144595 24.1248C0.0029936 24.9256 0.701237 25.6189 1.50202 25.4822L7.43463 24.4422L20.2569 11.6199C20.4864 11.3904 20.4864 11.0193 20.2569 10.7898L14.837 5.36989C14.6026 5.1404 14.2315 5.1404 14.002 5.36989ZM6.18463 17.0935C5.91608 16.825 5.91608 16.3953 6.18463 16.1267L13.7042 8.60719C13.9727 8.33864 14.4024 8.33864 14.671 8.60719C14.9395 8.87575 14.9395 9.30544 14.671 9.57399L7.15143 17.0935C6.88288 17.3621 6.45319 17.3621 6.18463 17.0935ZM4.42194 21.2H6.76569V22.9724L3.61627 23.5242L2.09772 22.0056L2.64948 18.8562H4.42194V21.2Z" fill="black"/>
</svg>
